<svg xmlns="http://www.w3.org/2000/svg" width="805" height="600"><rect width="805" height="600" x="0" y="0" fill="#ffffff" id="backgorund"/><g id="viz"><clipPath id="serieClipPath"><rect x="-50" y="-10" width="805" height="600"/></clipPath><g transform="translate(0,0)"><g transform="translate(50,10)" clip-path="url(#serieClipPath)"><g id="axis"><g transform="translate(0,570)" fill="none" font-size="10" font-family="sans-serif" text-anchor="middle"><path class="domain" stroke="currentColor" d="M0.5,6V0.5H740.5V6"/><g class="tick" opacity="1" transform="translate(0.5,0)"><line stroke="currentColor" y2="6"/><text fill="currentColor" y="9" dy="0.71em">Nov 28</text></g><g class="tick" opacity="1" transform="translate(74.5,0)"><line stroke="currentColor" y2="6"/><text fill="currentColor" y="9" dy="0.71em">Dec 05</text></g><g class="tick" opacity="1" transform="translate(148.5,0)"><line stroke="currentColor" y2="6"/><text fill="currentColor" y="9" dy="0.71em">Dec 12</text></g><g class="tick" opacity="1" transform="translate(222.5,0)"><line stroke="currentColor" y2="6"/><text fill="currentColor" y="9" dy="0.71em">Dec 19</text></g><g class="tick" opacity="1" transform="translate(296.5,0)"><line stroke="currentColor" y2="6"/><text fill="currentColor" y="9" dy="0.71em">Dec 26</text></g><g class="tick" opacity="1" transform="translate(370.5,0)"><line stroke="currentColor" y2="6"/><text fill="currentColor" y="9" dy="0.71em">Jan 02</text></g><g class="tick" opacity="1" transform="translate(444.5,0)"><line stroke="currentColor" y2="6"/><text fill="currentColor" y="9" dy="0.71em">Jan 09</text></g><g class="tick" opacity="1" transform="translate(518.5,0)"><line stroke="currentColor" y2="6"/><text fill="currentColor" y="9" dy="0.71em">Jan 16</text></g><g class="tick" opacity="1" transform="translate(592.5,0)"><line stroke="currentColor" y2="6"/><text fill="currentColor" y="9" dy="0.71em">Jan 23</text></g><g class="tick" opacity="1" transform="translate(666.5,0)"><line stroke="currentColor" y2="6"/><text fill="currentColor" y="9" dy="0.71em">Jan 30</text></g><g class="tick" opacity="1" transform="translate(740.5,0)"><line stroke="currentColor" y2="6"/><text fill="currentColor" y="9" dy="0.71em">Feb 06</text></g><text x="740" dy="-5" text-anchor="end" style="font-family: Arial, sans-serif; font-size: 12px; fill: rgb(123, 123, 123); font-weight: bold;">data</text></g><g transform="translate(0,0)" fill="none" font-size="10" font-family="sans-serif" text-anchor="end"><path class="domain" stroke="currentColor" d="M0.5,570.5V0.5"/><g class="tick" opacity="1" transform="translate(0,570.5)"><line stroke="currentColor" x2="-6"/><text fill="currentColor" x="-9" dy="0.32em">0</text></g><g class="tick" opacity="1" transform="translate(0,513.5)"><line stroke="currentColor" x2="-6"/><text fill="currentColor" x="-9" dy="0.32em">50</text></g><g class="tick" opacity="1" transform="translate(0,456.5)"><line stroke="currentColor" x2="-6"/><text fill="currentColor" x="-9" dy="0.32em">100</text></g><g class="tick" opacity="1" transform="translate(0,399.5)"><line stroke="currentColor" x2="-6"/><text fill="currentColor" x="-9" dy="0.32em">150</text></g><g class="tick" opacity="1" transform="translate(0,342.5)"><line stroke="currentColor" x2="-6"/><text fill="currentColor" x="-9" dy="0.32em">200</text></g><g class="tick" opacity="1" transform="translate(0,285.5)"><line stroke="currentColor" x2="-6"/><text fill="currentColor" x="-9" dy="0.32em">250</text></g><g class="tick" opacity="1" transform="translate(0,228.5)"><line stroke="currentColor" x2="-6"/><text fill="currentColor" x="-9" dy="0.32em">300</text></g><g class="tick" opacity="1" transform="translate(0,171.50000000000003)"><line stroke="currentColor" x2="-6"/><text fill="currentColor" x="-9" dy="0.32em">350</text></g><g class="tick" opacity="1" transform="translate(0,114.49999999999997)"><line stroke="currentColor" x2="-6"/><text fill="currentColor" x="-9" dy="0.32em">400</text></g><g class="tick" opacity="1" transform="translate(0,57.499999999999986)"><line stroke="currentColor" x2="-6"/><text fill="currentColor" x="-9" dy="0.32em">450</text></g><g class="tick" opacity="1" transform="translate(0,0.5)"><line stroke="currentColor" x2="-6"/><text fill="currentColor" x="-9" dy="0.32em">500</text></g><text x="4" text-anchor="start" dominant-baseline="hanging" style="font-family: Arial, sans-serif; font-size: 12px; fill: rgb(123, 123, 123); font-weight: bold;">totale_positivi</text></g></g><g id="viz"><g><path d="M31.714285714285715,527.82C35.23809523809524,525.844326928433,38.761904761904766,523.8686538568662,42.285714285714285,524.4C45.8095238095238,524.9313461431337,49.33333333333332,527.9697115009683,52.857142857142854,524.4C56.38095238095239,520.8302884990317,59.9047619047619,510.6525001392604,63.42857142857143,523.26C66.95238095238096,535.8674998607396,70.47619047619048,571.26028794199,74,570C77.52380952380952,568.73971205801,81.04761904761905,530.82634809278,84.57142857142857,518.7C88.09523809523809,506.5736519072201,91.61904761904759,520.2343196868902,95.14285714285714,522.12C98.66666666666669,524.0056803131098,102.19047619047622,514.1163731596586,105.71428571428571,525.5400000000001C109.2380952380952,536.9636268403416,112.76190476190473,569.7001876744758,116.28571428571428,570C119.80952380952382,570.2998123255242,123.33333333333331,538.1628761424379,126.85714285714286,527.82C130.3809523809524,517.4771238575622,133.90476190476195,528.9283077557728,137.42857142857144,530.0999999999999C140.95238095238093,531.271692244227,144.47619047619048,522.1638928344704,148,532.38C151.52380952380952,542.5961071655296,155.04761904761904,572.1361209063456,158.57142857142856,570C162.09523809523807,567.8638790936544,165.61904761904762,534.0516235401471,169.14285714285714,533.52C172.66666666666666,532.9883764598528,176.19047619047612,565.737384933066,179.71428571428572,570C183.23809523809533,574.262615066934,186.76190476190482,550.0388367275891,190.28571428571428,541.5C193.80952380952374,532.9611632724109,197.3333333333333,540.1072681565774,200.85714285714283,543.78C204.38095238095238,547.4527318434225,207.90476190476187,547.652090646101,211.42857142857142,547.1999999999999C214.95238095238096,546.7479093538989,218.47619047619048,545.6443692590184,222,544.92C225.52380952380952,544.1956307409815,229.047619047619,543.8504323178254,232.57142857142856,543.78C236.0952380952381,543.7095676821746,239.61904761904765,543.9139014696797,243.14285714285714,543.78C246.66666666666663,543.6460985303203,250.19047619047615,543.1739618034557,253.71428571428572,541.5C257.2380952380953,539.8260381965443,260.76190476190476,536.9502513164973,264.2857142857143,536.9399999999999C267.8095238095238,536.9297486835026,271.33333333333337,539.785032930555,274.8571428571429,540.36C278.3809523809524,540.9349670694451,281.90476190476187,539.2296169612825,285.42857142857144,538.0799999999999C288.952380952381,536.9303830387173,292.4761904761905,536.3364992243144,296,536.9399999999999C299.5238095238095,537.5435007756855,303.04761904761904,539.3443861414595,306.5714285714286,538.0799999999999C310.0952380952382,536.8156138585404,313.61904761904765,532.4859562098469,317.1428571428571,527.82C320.6666666666666,523.1540437901532,324.19047619047615,518.1517890191534,327.7142857142857,516.42C331.2380952380953,514.6882109808465,334.76190476190476,516.2268877135401,338.2857142857143,516.42C341.8095238095238,516.6131122864598,345.33333333333326,515.4606601266861,348.85714285714283,515.28C352.3809523809524,515.0993398733139,355.90476190476187,515.890471779715,359.42857142857144,515.28C362.952380952381,514.669528220285,366.47619047619054,512.6574527544537,370,511.86C373.52380952380946,511.06254724554634,377.04761904761904,511.47971720247085,380.57142857142856,511.86C384.0952380952381,512.2402827975292,387.61904761904765,512.5836784356629,391.14285714285717,509.58C394.6666666666667,506.576321564337,398.19047619047615,500.2255690548772,401.71428571428567,495.9C405.2380952380952,491.57443094512274,408.76190476190476,489.274045344828,412.2857142857143,484.5C415.8095238095238,479.725954655172,419.33333333333326,472.4782495658103,422.85714285714283,467.40000000000003C426.3809523809524,462.32175043418977,429.9047619047619,459.412956391931,433.42857142857144,454.86C436.95238095238096,450.307043608069,440.4761904761904,444.10992486646575,444,441.18C447.5238095238096,438.25007513353427,451.0476190476192,438.58734414220595,454.5714285714286,433.2C458.095238095238,427.812655857794,461.61904761904754,416.7006985647101,465.1428571428571,411.53999999999996C468.6666666666667,406.37930143528985,472.19047619047615,407.16986159895356,475.7142857142857,405.84C479.2380952380953,404.5101384010464,482.7619047619048,401.05985503947556,486.2857142857143,395.58C489.80952380952374,390.1001449605244,493.33333333333326,382.5907182431441,496.85714285714283,381.9C500.3809523809524,381.20928175685583,503.90476190476187,387.33727198794764,507.42857142857144,384.17999999999995C510.952380952381,381.02272801205226,514.4761904761906,368.5801938050653,518,361.38C521.5238095238094,354.1798061949347,525.0476190476189,352.221952791791,528.5714285714286,343.14C532.0952380952382,334.05804720820896,535.6190476190476,317.8519950277709,539.1428571428571,318.06C542.6666666666666,318.2680049722291,546.1904761904763,334.89006709712527,549.7142857142858,334.02000000000004C553.2380952380953,333.1499329028748,556.7619047619047,314.7877365837283,560.2857142857142,303.24C563.8095238095237,291.6922634162717,567.3333333333333,286.9589865679617,570.8571428571429,287.28000000000003C574.3809523809525,287.60101343203837,577.9047619047619,292.9763171444251,581.4285714285714,285C584.952380952381,277.0236828555749,588.4761904761906,255.69574485433776,592,246.24000000000004C595.5238095238094,236.7842551456623,599.0476190476189,239.20070343822414,602.5714285714286,235.98000000000002C606.0952380952382,232.7592965617759,609.6190476190477,223.90144139276603,613.1428571428572,210.9C616.6666666666667,197.89855860723398,620.1904761904763,180.75353099071168,623.7142857142857,173.28000000000003C627.2380952380951,165.80646900928838,630.7619047619046,168.0044346443873,634.2857142857142,164.16000000000003C637.8095238095239,160.31556535561276,641.3333333333334,150.42873043173927,644.8571428571429,147.06C648.3809523809524,143.69126956826074,651.9047619047618,146.8406436286555,655.4285714285714,140.22C658.9523809523811,133.5993563713445,662.4761904761906,117.20869505363865,666,111.71999999999997C669.5238095238094,106.23130494636129,673.047619047619,111.64457615678975,676.5714285714286,107.15999999999997C680.0952380952381,102.67542384321018,683.6190476190475,88.29300031920214,687.1428571428571,85.50000000000001C690.6666666666667,82.70699968079789,694.1904761904761,91.50342256640165,697.7142857142857,85.50000000000001C701.2380952380952,79.49657743359838,704.7619047619047,58.693309415191294,708.2857142857143,49.01999999999998C711.809523809524,39.34669058480867,715.3333333333334,40.803339772833084,718.8571428571429,49.01999999999998C722.3809523809524,57.23666022716688,725.9047619047619,72.21333149347626,729.4285714285714,76.38000000000001C732.952380952381,80.54666850652376,736.4761904761905,73.90333425326187,740,67.25999999999999" stroke="#bd10e0" fill="none"/><text font-family="sans-serif" font-size="10" class="labels" x="708.2857142857143" y="49.01999999999998" dx="0" dy="-4" text-anchor="middle"/></g></g></g><text y="4" x="4" style="font-family: Arial, sans-serif; font-size: 12px; fill: black; font-weight: bold; dominant-baseline: hanging;"/></g><g id="grid"><rect x="0" y="0" width="805" height="600" fill="none" stroke="#ccc"/></g></g></svg>