<svg xmlns="http://www.w3.org/2000/svg" width="805" height="600"><rect width="805" height="600" x="0" y="0" fill="#ffffff" id="backgorund"/><g id="viz"><clipPath id="serieClipPath"><rect x="-50" y="-10" width="805" height="600"/></clipPath><g transform="translate(0,0)"><g transform="translate(50,10)" clip-path="url(#serieClipPath)"><g id="axis"><g transform="translate(0,570)" fill="none" font-size="10" font-family="sans-serif" text-anchor="middle"><path class="domain" stroke="currentColor" d="M0.5,6V0.5H740.5V6"/><g class="tick" opacity="1" transform="translate(0.5,0)"><line stroke="currentColor" y2="6"/><text fill="currentColor" y="9" dy="0.71em">Nov 28</text></g><g class="tick" opacity="1" transform="translate(74.5,0)"><line stroke="currentColor" y2="6"/><text fill="currentColor" y="9" dy="0.71em">Dec 05</text></g><g class="tick" opacity="1" transform="translate(148.5,0)"><line stroke="currentColor" y2="6"/><text fill="currentColor" y="9" dy="0.71em">Dec 12</text></g><g class="tick" opacity="1" transform="translate(222.5,0)"><line stroke="currentColor" y2="6"/><text fill="currentColor" y="9" dy="0.71em">Dec 19</text></g><g class="tick" opacity="1" transform="translate(296.5,0)"><line stroke="currentColor" y2="6"/><text fill="currentColor" y="9" dy="0.71em">Dec 26</text></g><g class="tick" opacity="1" transform="translate(370.5,0)"><line stroke="currentColor" y2="6"/><text fill="currentColor" y="9" dy="0.71em">Jan 02</text></g><g class="tick" opacity="1" transform="translate(444.5,0)"><line stroke="currentColor" y2="6"/><text fill="currentColor" y="9" dy="0.71em">Jan 09</text></g><g class="tick" opacity="1" transform="translate(518.5,0)"><line stroke="currentColor" y2="6"/><text fill="currentColor" y="9" dy="0.71em">Jan 16</text></g><g class="tick" opacity="1" transform="translate(592.5,0)"><line stroke="currentColor" y2="6"/><text fill="currentColor" y="9" dy="0.71em">Jan 23</text></g><g class="tick" opacity="1" transform="translate(666.5,0)"><line stroke="currentColor" y2="6"/><text fill="currentColor" y="9" dy="0.71em">Jan 30</text></g><g class="tick" opacity="1" transform="translate(740.5,0)"><line stroke="currentColor" y2="6"/><text fill="currentColor" y="9" dy="0.71em">Feb 06</text></g><text x="740" dy="-5" text-anchor="end" style="font-family: Arial, sans-serif; font-size: 12px; fill: rgb(123, 123, 123); font-weight: bold;">data</text></g><g transform="translate(0,0)" fill="none" font-size="10" font-family="sans-serif" text-anchor="end"><path class="domain" stroke="currentColor" d="M0.5,570.5V0.5"/><g class="tick" opacity="1" transform="translate(0,570.5)"><line stroke="currentColor" x2="-6"/><text fill="currentColor" x="-9" dy="0.32em">0</text></g><g class="tick" opacity="1" transform="translate(0,513.5)"><line stroke="currentColor" x2="-6"/><text fill="currentColor" x="-9" dy="0.32em">5</text></g><g class="tick" opacity="1" transform="translate(0,456.5)"><line stroke="currentColor" x2="-6"/><text fill="currentColor" x="-9" dy="0.32em">10</text></g><g class="tick" opacity="1" transform="translate(0,399.5)"><line stroke="currentColor" x2="-6"/><text fill="currentColor" x="-9" dy="0.32em">15</text></g><g class="tick" opacity="1" transform="translate(0,342.5)"><line stroke="currentColor" x2="-6"/><text fill="currentColor" x="-9" dy="0.32em">20</text></g><g class="tick" opacity="1" transform="translate(0,285.5)"><line stroke="currentColor" x2="-6"/><text fill="currentColor" x="-9" dy="0.32em">25</text></g><g class="tick" opacity="1" transform="translate(0,228.5)"><line stroke="currentColor" x2="-6"/><text fill="currentColor" x="-9" dy="0.32em">30</text></g><g class="tick" opacity="1" transform="translate(0,171.50000000000003)"><line stroke="currentColor" x2="-6"/><text fill="currentColor" x="-9" dy="0.32em">35</text></g><g class="tick" opacity="1" transform="translate(0,114.49999999999997)"><line stroke="currentColor" x2="-6"/><text fill="currentColor" x="-9" dy="0.32em">40</text></g><g class="tick" opacity="1" transform="translate(0,57.499999999999986)"><line stroke="currentColor" x2="-6"/><text fill="currentColor" x="-9" dy="0.32em">45</text></g><g class="tick" opacity="1" transform="translate(0,0.5)"><line stroke="currentColor" x2="-6"/><text fill="currentColor" x="-9" dy="0.32em">50</text></g><text x="4" text-anchor="start" dominant-baseline="hanging" style="font-family: Arial, sans-serif; font-size: 12px; fill: rgb(123, 123, 123); font-weight: bold;">positivi</text></g></g><g id="viz"><g><path d="M31.714285714285715,513C35.23809523809524,521.449597209785,38.761904761904766,529.8991944195701,42.285714285714285,535.8C45.8095238095238,541.7008055804298,49.33333333333332,545.0528195315048,52.857142857142854,547.1999999999999C56.38095238095239,549.347180468495,59.9047619047619,550.2895274544095,63.42857142857143,558.6C66.95238095238096,566.9104725455906,70.47619047619048,582.5890706508566,74,570C77.52380952380952,557.4109293491434,81.04761904761905,516.5541899421644,84.57142857142857,513C88.09523809523809,509.4458100578357,91.61904761904759,543.1941695804865,95.14285714285714,558.6C98.66666666666669,574.0058304195136,102.19047619047622,571.0691317358895,105.71428571428571,570C109.2380952380952,568.9308682641105,112.76190476190473,569.7293034759555,116.28571428571428,570C119.80952380952382,570.2706965240445,123.33333333333331,570.0136543602883,126.85714285714286,570C130.3809523809524,569.9863456397117,133.90476190476195,570.2160790828909,137.42857142857144,570C140.95238095238093,569.7839209171091,144.47619047619048,569.1220293081482,148,570C151.52380952380952,570.8779706918518,155.04761904761904,573.2958036845167,158.57142857142856,570C162.09523809523807,566.7041963154833,165.61904761904762,557.6947559537851,169.14285714285714,558.6C172.66666666666666,559.5052440462149,176.19047619047612,570.325172500343,179.71428571428572,570C183.23809523809533,569.674827499657,186.76190476190482,558.2045540448429,190.28571428571428,558.6C193.80952380952374,558.9954459551572,197.3333333333333,571.2566113202851,200.85714285714283,570C204.38095238095238,568.7433886797149,207.90476190476187,553.9690006740167,211.42857142857142,547.1999999999999C214.95238095238096,540.4309993259832,218.47619047619048,541.6673859836478,222,547.1999999999999C225.52380952380952,552.732614016352,229.047619047619,562.5614553913913,232.57142857142856,558.6C236.0952380952381,554.6385446086088,239.61904761904765,536.8867924507872,243.14285714285714,535.8C246.66666666666663,534.7132075492127,250.19047619047615,550.2913748054598,253.71428571428572,547.1999999999999C257.2380952380953,544.1086251945401,260.76190476190476,522.3477083273738,264.2857142857143,524.4C267.8095238095238,526.4522916726262,271.33333333333337,552.3177918850446,274.8571428571429,558.6C278.3809523809524,564.8822081149555,281.90476190476187,551.5811241324477,285.42857142857144,547.1999999999999C288.952380952381,542.8188758675522,292.4761904761905,547.3577115851642,296,558.6C299.5238095238095,569.8422884148358,303.04761904761904,587.7880295268956,306.5714285714286,570C310.0952380952382,552.2119704731044,313.61904761904765,498.690170307253,317.1428571428571,467.40000000000003C320.6666666666666,436.10982969274704,324.19047619047615,427.05128924409223,327.7142857142857,456C331.2380952380953,484.94871075590777,334.76190476190476,551.9046727163785,338.2857142857143,558.6C341.8095238095238,565.2953272836215,345.33333333333326,511.73001989039346,348.85714285714283,501.6C352.3809523809524,491.4699801096066,355.90476190476187,524.7752477220479,359.42857142857144,535.8C362.952380952381,546.824752277952,366.47619047619054,535.5689892214148,370,535.8C373.52380952380946,536.0310107785851,377.04761904761904,547.7487953922932,380.57142857142856,558.6C384.0952380952381,569.4512046077068,387.61904761904765,579.4358292094117,391.14285714285717,547.1999999999999C394.6666666666667,514.9641707905881,398.19047619047615,440.5078877700598,401.71428571428567,410.4C405.2380952380952,380.29211222994013,408.76190476190476,394.53261971034874,412.2857142857143,399C415.8095238095238,403.46738028965126,419.33333333333326,398.1616333885451,422.85714285714283,387.59999999999997C426.3809523809524,377.0383666114548,429.9047619047619,361.22084673547073,433.42857142857144,364.8C436.95238095238096,368.3791532645293,440.4761904761904,391.35497966957195,444,421.8C447.5238095238096,452.2450203304281,451.0476190476192,490.15923458624155,454.5714285714286,456C458.095238095238,421.84076541375845,461.61904761904754,315.60808198546164,465.1428571428571,319.20000000000005C468.6666666666667,322.79191801453845,472.19047619047615,436.20843747191185,475.7142857142857,467.40000000000003C479.2380952380953,498.5915625280882,482.7619047619048,447.558168126891,486.2857142857143,421.8C489.80952380952374,396.041831873109,493.33333333333326,395.5588900205243,496.85714285714283,399C500.3809523809524,402.4411099794757,503.90476190476187,409.80627179101185,507.42857142857144,387.59999999999997C510.952380952381,365.3937282089881,514.4761904761906,313.6160228154279,518,319.20000000000005C521.5238095238094,324.78397718457217,525.0476190476189,387.7296369472766,528.5714285714286,364.8C532.0952380952382,341.8703630527234,535.6190476190476,233.06542939546563,539.1428571428571,205.2C542.6666666666666,177.33457060453435,546.1904761904763,230.40864547086096,549.7142857142858,239.40000000000003C553.2380952380953,248.3913545291391,556.7619047619047,213.29998872109047,560.2857142857142,216.6C563.8095238095237,219.90001127890952,567.3333333333333,261.5913996447769,570.8571428571429,307.8C574.3809523809525,354.0086003552231,577.9047619047619,404.73441269980174,581.4285714285714,353.4C584.952380952381,302.0655873001982,588.4761904761906,148.67094955601613,592,171.00000000000003C595.5238095238094,193.32905044398393,599.0476190476189,391.3817890761336,602.5714285714286,410.4C606.0952380952382,429.41821092386635,609.6190476190477,269.40189413944927,613.1428571428572,159.60000000000002C616.6666666666667,49.798105860550756,620.1904761904763,-9.789365633930728,623.7142857142857,22.80000000000002C627.2380952380951,55.389365633930765,630.7619047619046,180.15556839627374,634.2857142857142,239.40000000000003C637.8095238095239,298.64443160372633,641.3333333333334,292.36709204883607,644.8571428571429,239.40000000000003C648.3809523809524,186.43290795116403,651.9047619047618,86.77606340838227,655.4285714285714,68.39999999999999C658.9523809523811,50.02393659161772,662.4761904761906,112.92865431763494,666,216.6C669.5238095238094,320.27134568236505,673.047619047619,464.709319321078,676.5714285714286,410.4C680.0952380952381,356.09068067892196,683.6190476190475,103.03406839805308,687.1428571428571,68.39999999999999C690.6666666666667,33.76593160194691,694.1904761904761,217.55440708670955,697.7142857142857,239.40000000000003C701.2380952380952,261.2455929132905,704.7619047619047,121.1483032551088,708.2857142857143,125.39999999999999C711.809523809524,129.65169674489118,715.3333333333334,278.2523798928553,718.8571428571429,307.8C722.3809523809524,337.34762010714473,725.9047619047619,247.84217717346996,729.4285714285714,239.40000000000003C732.952380952381,230.9578228265301,736.4761904761905,303.578911413265,740,376.19999999999993" stroke="#d0021b" fill="none"/><text font-family="sans-serif" font-size="10" class="labels" x="623.7142857142857" y="22.80000000000002" dx="0" dy="-4" text-anchor="middle"/></g></g></g><text y="4" x="4" style="font-family: Arial, sans-serif; font-size: 12px; fill: black; font-weight: bold; dominant-baseline: hanging;"/></g><g id="grid"><rect x="0" y="0" width="805" height="600" fill="none" stroke="#ccc"/></g></g></svg>