<svg xmlns="http://www.w3.org/2000/svg" width="805" height="600"><rect width="805" height="600" x="0" y="0" fill="#ffffff" id="backgorund"/><g id="viz"><clipPath id="serieClipPath"><rect x="-50" y="-10" width="805" height="600"/></clipPath><g transform="translate(0,0)"><g transform="translate(50,10)" clip-path="url(#serieClipPath)"><g id="axis"><g transform="translate(0,570)" fill="none" font-size="10" font-family="sans-serif" text-anchor="middle"><path class="domain" stroke="currentColor" d="M0.5,6V0.5H740.5V6"/><g class="tick" opacity="1" transform="translate(0.5,0)"><line stroke="currentColor" y2="6"/><text fill="currentColor" y="9" dy="0.71em">Nov 28</text></g><g class="tick" opacity="1" transform="translate(74.5,0)"><line stroke="currentColor" y2="6"/><text fill="currentColor" y="9" dy="0.71em">Dec 05</text></g><g class="tick" opacity="1" transform="translate(148.5,0)"><line stroke="currentColor" y2="6"/><text fill="currentColor" y="9" dy="0.71em">Dec 12</text></g><g class="tick" opacity="1" transform="translate(222.5,0)"><line stroke="currentColor" y2="6"/><text fill="currentColor" y="9" dy="0.71em">Dec 19</text></g><g class="tick" opacity="1" transform="translate(296.5,0)"><line stroke="currentColor" y2="6"/><text fill="currentColor" y="9" dy="0.71em">Dec 26</text></g><g class="tick" opacity="1" transform="translate(370.5,0)"><line stroke="currentColor" y2="6"/><text fill="currentColor" y="9" dy="0.71em">Jan 02</text></g><g class="tick" opacity="1" transform="translate(444.5,0)"><line stroke="currentColor" y2="6"/><text fill="currentColor" y="9" dy="0.71em">Jan 09</text></g><g class="tick" opacity="1" transform="translate(518.5,0)"><line stroke="currentColor" y2="6"/><text fill="currentColor" y="9" dy="0.71em">Jan 16</text></g><g class="tick" opacity="1" transform="translate(592.5,0)"><line stroke="currentColor" y2="6"/><text fill="currentColor" y="9" dy="0.71em">Jan 23</text></g><g class="tick" opacity="1" transform="translate(666.5,0)"><line stroke="currentColor" y2="6"/><text fill="currentColor" y="9" dy="0.71em">Jan 30</text></g><g class="tick" opacity="1" transform="translate(740.5,0)"><line stroke="currentColor" y2="6"/><text fill="currentColor" y="9" dy="0.71em">Feb 06</text></g><text x="740" dy="-5" text-anchor="end" style="font-family: Arial, sans-serif; font-size: 12px; fill: rgb(123, 123, 123); font-weight: bold;">data</text></g><g transform="translate(0,0)" fill="none" font-size="10" font-family="sans-serif" text-anchor="end"><path class="domain" stroke="currentColor" d="M0.5,570.5V0.5"/><g class="tick" opacity="1" transform="translate(0,570.5)"><line stroke="currentColor" x2="-6"/><text fill="currentColor" x="-9" dy="0.32em">0</text></g><g class="tick" opacity="1" transform="translate(0,518.6818181818181)"><line stroke="currentColor" x2="-6"/><text fill="currentColor" x="-9" dy="0.32em">5</text></g><g class="tick" opacity="1" transform="translate(0,466.8636363636363)"><line stroke="currentColor" x2="-6"/><text fill="currentColor" x="-9" dy="0.32em">10</text></g><g class="tick" opacity="1" transform="translate(0,415.04545454545456)"><line stroke="currentColor" x2="-6"/><text fill="currentColor" x="-9" dy="0.32em">15</text></g><g class="tick" opacity="1" transform="translate(0,363.22727272727275)"><line stroke="currentColor" x2="-6"/><text fill="currentColor" x="-9" dy="0.32em">20</text></g><g class="tick" opacity="1" transform="translate(0,311.4090909090909)"><line stroke="currentColor" x2="-6"/><text fill="currentColor" x="-9" dy="0.32em">25</text></g><g class="tick" opacity="1" transform="translate(0,259.5909090909091)"><line stroke="currentColor" x2="-6"/><text fill="currentColor" x="-9" dy="0.32em">30</text></g><g class="tick" opacity="1" transform="translate(0,207.77272727272728)"><line stroke="currentColor" x2="-6"/><text fill="currentColor" x="-9" dy="0.32em">35</text></g><g class="tick" opacity="1" transform="translate(0,155.95454545454544)"><line stroke="currentColor" x2="-6"/><text fill="currentColor" x="-9" dy="0.32em">40</text></g><g class="tick" opacity="1" transform="translate(0,104.13636363636361)"><line stroke="currentColor" x2="-6"/><text fill="currentColor" x="-9" dy="0.32em">45</text></g><g class="tick" opacity="1" transform="translate(0,52.318181818181834)"><line stroke="currentColor" x2="-6"/><text fill="currentColor" x="-9" dy="0.32em">50</text></g><g class="tick" opacity="1" transform="translate(0,0.5)"><line stroke="currentColor" x2="-6"/><text fill="currentColor" x="-9" dy="0.32em">55</text></g><text x="4" text-anchor="start" dominant-baseline="hanging" style="font-family: Arial, sans-serif; font-size: 12px; fill: rgb(123, 123, 123); font-weight: bold;">negativizzati</text></g></g><g id="viz"><g><path d="M31.714285714285715,570C35.23809523809524,572.9719523263075,38.761904761904766,575.9439046526151,42.285714285714285,570C45.8095238095238,564.0560953473849,49.33333333333332,549.1963337158473,52.857142857142854,549.2727272727273C56.38095238095239,549.3491208296072,59.9047619047619,564.3616695749041,63.42857142857143,570C66.95238095238096,575.6383304250959,70.47619047619048,571.9024425299909,74,570C77.52380952380952,568.0975574700091,81.04761904761905,568.0285603051321,84.57142857142857,559.6363636363636C88.09523809523809,551.2441669675951,91.61904761904759,534.528770794935,95.14285714285714,528.5454545454545C98.66666666666669,522.562138295974,102.19047619047622,527.3109019696727,105.71428571428571,538.9090909090909C109.2380952380952,550.507279848509,112.76190476190473,568.9548940536465,116.28571428571428,570C119.80952380952382,571.0451059463535,123.33333333333331,554.687703633923,126.85714285714286,549.2727272727273C130.3809523809524,543.8577509115315,133.90476190476195,549.3852005015706,137.42857142857144,549.2727272727273C140.95238095238093,549.1602540438839,144.47619047619048,543.4078579961584,148,549.2727272727273C151.52380952380952,555.1375965492961,155.04761904761904,572.619731150159,158.57142857142856,570C162.09523809523807,567.380268849841,165.61904761904762,544.6586719486598,169.14285714285714,549.2727272727273C172.66666666666666,553.8867825967947,176.19047619047612,585.8364901461105,179.71428571428572,570C183.23809523809533,554.1635098538895,186.76190476190482,490.5408220123529,190.28571428571428,487.09090909090907C193.80952380952374,483.6409961694652,197.3333333333333,540.3638581681138,200.85714285714283,549.2727272727273C204.38095238095238,558.1815963773407,207.90476190476187,519.276472587919,211.42857142857142,518.1818181818181C214.95238095238096,517.0871637757173,218.47619047619048,553.8029787529373,222,570C225.52380952380952,586.1970212470627,229.047619047619,581.875248763968,232.57142857142856,570C236.0952380952381,558.124751236032,239.61904761904765,538.6960261911902,243.14285714285714,538.9090909090909C246.66666666666663,539.1221556269916,250.19047619047615,558.9770101076347,253.71428571428572,570C257.2380952380953,581.0229898923653,260.76190476190476,583.2141151964522,264.2857142857143,570C267.8095238095238,556.7858848035478,271.33333333333337,528.1665291065563,274.8571428571429,528.5454545454545C278.3809523809524,528.9243799843528,281.90476190476187,558.3015865591404,285.42857142857144,570C288.952380952381,581.6984134408596,292.4761904761905,575.7180337477906,296,570C299.5238095238095,564.2819662522094,303.04761904761904,558.8262784496973,306.5714285714286,559.6363636363636C310.0952380952382,560.44644882303,313.61904761904765,567.5223069988748,317.1428571428571,570C320.6666666666666,572.4776930011252,324.19047619047615,570.3572208275308,327.7142857142857,570C331.2380952380953,569.6427791724692,334.76190476190476,571.0488096910021,338.2857142857143,559.6363636363636C341.8095238095238,548.2239175817251,345.33333333333326,523.9929949539148,348.85714285714283,518.1818181818181C352.3809523809524,512.3706414097214,355.90476190476187,524.9792104933387,359.42857142857144,538.9090909090909C362.952380952381,552.8389713248431,366.47619047619054,568.0901630727303,370,570C373.52380952380946,571.9098369272697,377.04761904761904,560.4783190339218,380.57142857142856,559.6363636363636C384.0952380952381,558.7944082388054,387.61904761904765,568.5420153370362,391.14285714285717,570C394.6666666666667,571.4579846629638,398.19047619047615,564.6263468906604,401.71428571428567,549.2727272727273C405.2380952380952,533.9191076547941,408.76190476190476,510.04350619123136,412.2857142857143,518.1818181818181C415.8095238095238,526.3201301724049,419.33333333333326,566.4723556171404,422.85714285714283,559.6363636363636C426.3809523809524,552.8003716555869,429.9047619047619,498.976162249298,433.42857142857144,497.4545454545455C436.95238095238096,495.932928659793,440.4761904761904,546.7139044765771,444,559.6363636363636C447.5238095238096,572.5588227961501,451.0476190476192,547.6227652989387,454.5714285714286,538.9090909090909C458.095238095238,530.195416519243,461.61904761904754,537.7041252367586,465.1428571428571,538.9090909090909C468.6666666666667,540.1140565814231,472.19047619047615,535.0152792085721,475.7142857142857,528.5454545454545C479.2380952380953,522.0756298823369,482.7619047619048,514.2347579289526,486.2857142857143,528.5454545454545C489.80952380952374,542.8561511619564,493.33333333333326,579.3184163483439,496.85714285714283,538.9090909090909C500.3809523809524,498.4997654698378,503.90476190476187,381.21884940494397,507.42857142857144,383.45454545454544C510.952380952381,385.6902415041469,514.4761904761906,507.4425496682438,518,549.2727272727273C521.5238095238094,591.1029048772107,525.0476190476189,553.010951922081,528.5714285714286,549.2727272727273C532.0952380952382,545.5345026233736,535.6190476190476,576.1500062797961,539.1428571428571,466.3636363636363C542.6666666666666,356.5772664474766,546.1904761904763,106.3890229587345,549.7142857142858,124.36363636363635C553.2380952380953,142.3382497685382,556.7619047619047,428.47572006708367,560.2857142857142,528.5454545454545C563.8095238095237,628.6151890238253,567.3333333333333,542.6171876820216,570.8571428571429,476.72727272727275C574.3809523809525,410.8373577725239,577.9047619047619,365.0555292048299,581.4285714285714,393.8181818181818C584.952380952381,422.58083443153373,588.4761904761906,525.8879682259313,592,559.6363636363636C595.5238095238094,593.3847590467959,599.0476190476189,557.5744160732629,602.5714285714286,518.1818181818181C606.0952380952382,478.7892202903734,609.6190476190477,435.81436748101675,613.1428571428572,424.90909090909093C616.6666666666667,414.0038143371651,620.1904761904763,435.16811400266994,623.7142857142857,414.54545454545456C627.2380952380951,393.9227950882392,630.7619047619046,331.5131765083036,634.2857142857142,352.3636363636364C637.8095238095239,373.21409621896913,641.3333333333334,477.3246345095701,644.8571428571429,424.90909090909093C648.3809523809524,372.49354730861177,651.9047619047618,163.55192181705243,655.4285714285714,176.1818181818182C658.9523809523811,188.81171454658394,662.4761904761906,423.0131327676745,666,507.8181818181818C669.5238095238094,592.6232308686891,673.047619047619,528.0319107486132,676.5714285714286,466.3636363636363C680.0952380952381,404.69536197865943,683.6190476190475,345.9501333287814,687.1428571428571,310.9090909090909C690.6666666666667,275.86804848940034,694.1904761904761,264.5311922998971,697.7142857142857,269.4545454545455C701.2380952380952,274.3778986091939,704.7619047619047,295.56146110799386,708.2857142857143,331.6363636363636C711.809523809524,367.7112661647334,715.3333333333334,418.67750872267294,718.8571428571429,331.6363636363636C722.3809523809524,244.5952185500543,725.9047619047619,19.54668581949603,729.4285714285714,20.727272727272734C732.952380952381,21.907859635049437,736.4761904761905,249.31756618116108,740,476.72727272727275" stroke="#7ed321" fill="none"/><text font-family="sans-serif" font-size="10" class="labels" x="729.4285714285714" y="20.727272727272734" dx="0" dy="-4" text-anchor="middle"/></g></g></g><text y="4" x="4" style="font-family: Arial, sans-serif; font-size: 12px; fill: black; font-weight: bold; dominant-baseline: hanging;"/></g><g id="grid"><rect x="0" y="0" width="805" height="600" fill="none" stroke="#ccc"/></g></g></svg>