<svg xmlns="http://www.w3.org/2000/svg" width="1005" height="600"><rect width="1005" height="600" x="0" y="0" fill="#FFFFFF" id="backgorund"/><g id="viz"><g transform="translate(0,0)"><g id="pie" transform="translate(402.5,304)"><path fill="rgb(94, 79, 162)" stroke="#FFFFFF" d="M1.8002307947466092e-14,-294A294,294,0,0,1,237.85099634623455,-172.80886417398708L0,0Z"/><path fill="rgb(158, 1, 66)" stroke="#FFFFFF" d="M237.85099634623455,-172.80886417398708A294,294,0,0,1,288.79245171423446,-55.09010648820299L0,0Z"/><path fill="rgb(253, 190, 112)" stroke="#FFFFFF" d="M288.79245171423446,-55.09010648820299A294,294,0,0,1,232.30557363845293,180.19467377397515L0,0Z"/><path fill="rgb(190, 229, 160)" stroke="#FFFFFF" d="M232.30557363845293,180.19467377397515A294,294,0,1,1,-5.400692384239827e-14,-294L0,0Z"/><g id="labels"><g transform="translate(66.73660346171339,-130.97795905569006)"><text text-anchor="middle" style="font-family: Arial, sans-serif; font-size: 10px; fill: black; font-weight: normal;">15</text></g><g transform="translate(134.90992997554523,-58.38073992331273)"><text text-anchor="middle" style="font-family: Arial, sans-serif; font-size: 10px; fill: black; font-weight: normal;">7</text></g><g transform="translate(142.93837829845845,34.316468486818124)"><text text-anchor="middle" style="font-family: Arial, sans-serif; font-size: 10px; fill: black; font-weight: normal;">13.5</text></g><g transform="translate(-132.01005363681048,64.67105796881955)"><text text-anchor="middle" style="font-family: Arial, sans-serif; font-size: 10px; fill: black; font-weight: normal;">64.5</text></g></g></g><text y="6" x="402.5" style="font-family: Arial, sans-serif; font-size: 12px; fill: black; font-weight: bold; dominant-baseline: auto; text-anchor: middle;"/></g></g><g id="legend" transform="translate(805,10)"><g transform="translate(5,0)"><g class="legendColor" transform="translate(0,0)"><g class="legendCells" transform="translate(0,16)"><g class="cell" transform="translate(0, 0)"><rect class="swatch" height="15" width="15" style="fill: rgb(158, 1, 66);"/><text class="label" transform="translate( 20, 12.5)" font-family="&quot;Arial&quot;, sans-serif" font-size="10px"><tspan x="0" dy="0em">13-18</tspan></text></g><g class="cell" transform="translate(0, 21)"><rect class="swatch" height="15" width="15" style="fill: rgb(253, 190, 112);"/><text class="label" transform="translate( 20, 12.5)" font-family="&quot;Arial&quot;, sans-serif" font-size="10px"><tspan x="0" dy="0em">19-30</tspan></text></g><g class="cell" transform="translate(0, 42)"><rect class="swatch" height="15" width="15" style="fill: rgb(190, 229, 160);"/><text class="label" transform="translate( 20, 12.5)" font-family="&quot;Arial&quot;, sans-serif" font-size="10px"><tspan x="0" dy="0em">over 31</tspan></text></g><g class="cell" transform="translate(0, 63)"><rect class="swatch" height="15" width="15" style="fill: rgb(94, 79, 162);"/><text class="label" transform="translate( 20, 12.5)" font-family="&quot;Arial&quot;, sans-serif" font-size="10px"><tspan x="0" dy="0em">under 12</tspan></text></g></g><text class="legendTitle" font-family="&quot;Arial&quot;, sans-serif" font-size="12px" font-weight="bold"><tspan x="0" dy="0em">Arcs colors</tspan></text></g></g></g></svg>
