<?xml version="1.0" standalone="no"?>
<!DOCTYPE svg PUBLIC "-//W3C//DTD SVG 20010904//EN"
 "http://www.w3.org/TR/2001/REC-SVG-20010904/DTD/svg10.dtd">
<svg version="1.0" xmlns="http://www.w3.org/2000/svg"
 width="1042.000000pt" height="1042.000000pt" viewBox="0 0 1042.000000 1042.000000"
 preserveAspectRatio="xMidYMid meet">

<g transform="translate(0.000000,1042.000000) scale(0.100000,-0.100000)"
fill="#000000" stroke="none">
<path d="M5025 10264 c-370 -82 -635 -411 -635 -787 0 -230 71 -406 232 -571
l78 -81 -61 -425 c-33 -234 -61 -426 -62 -426 -1 -1 -53 -15 -116 -32 l-114
-31 -21 27 c-435 553 -516 659 -510 672 35 80 47 153 48 285 1 118 -3 152 -22
218 -68 236 -227 422 -445 522 -399 182 -871 13 -1062 -380 -55 -113 -74 -184
-82 -307 -15 -230 61 -437 220 -605 116 -122 257 -202 414 -234 l62 -13 161
-400 160 -400 -82 -83 c-46 -46 -87 -83 -93 -83 -9 0 -786 308 -793 315 -2 1
-11 39 -22 82 -47 196 -167 370 -331 479 -152 101 -289 138 -484 132 -114 -4
-142 -9 -225 -37 -268 -91 -466 -304 -530 -571 -27 -117 -28 -287 0 -396 40
-157 113 -278 239 -396 63 -60 103 -87 183 -126 139 -68 214 -85 363 -85 89 1
140 6 195 22 41 11 84 23 95 26 15 4 99 -57 345 -251 179 -140 331 -261 338
-268 10 -10 7 -34 -17 -125 -17 -62 -31 -114 -33 -116 -2 -1 -194 -29 -428
-62 l-425 -61 -35 41 c-92 108 -256 208 -406 248 -105 28 -289 30 -389 5 -236
-60 -432 -217 -540 -434 -57 -114 -77 -206 -78 -352 -1 -155 16 -229 83 -366
39 -80 66 -119 126 -184 170 -180 353 -260 593 -260 236 0 419 76 580 239 l68
69 424 -60 c233 -33 425 -62 427 -63 1 -1 16 -53 33 -116 l31 -114 -24 -18
c-13 -11 -166 -132 -340 -269 l-317 -249 -63 21 c-257 84 -559 24 -766 -154
-126 -108 -223 -263 -262 -420 -25 -98 -27 -280 -5 -376 57 -246 215 -443 440
-551 127 -61 189 -74 355 -74 124 0 156 3 220 23 266 84 461 272 539 521 16
53 32 108 35 122 5 25 35 39 406 187 l400 160 85 -86 85 -87 -161 -400 -162
-401 -63 -12 c-194 -37 -388 -171 -505 -350 -90 -138 -124 -258 -123 -442 0
-159 14 -221 79 -355 100 -207 293 -365 521 -426 111 -30 297 -30 409 0 279
75 497 289 577 567 19 66 22 102 22 219 -1 120 -4 152 -26 223 l-25 82 264
338 c146 185 266 338 268 340 2 2 226 -57 232 -62 1 -1 29 -193 63 -428 l61
-426 -62 -59 c-163 -155 -249 -353 -249 -576 0 -240 84 -435 258 -599 425
-400 1128 -223 1317 332 102 301 12 653 -218 855 l-51 45 59 421 c33 231 62
425 66 430 3 5 48 21 100 35 52 13 102 27 111 30 12 4 81 -77 271 -319 141
-179 261 -333 267 -344 10 -15 8 -32 -10 -88 -34 -107 -40 -312 -11 -425 41
-162 112 -282 240 -402 63 -60 103 -87 183 -126 139 -68 214 -86 363 -86 149
0 223 18 365 86 95 46 115 61 205 152 86 86 108 115 148 196 67 135 89 227 89
375 0 134 -21 233 -72 342 -107 229 -320 397 -568 447 l-54 11 -159 394 c-87
217 -159 399 -159 405 0 6 37 48 83 93 l82 82 401 -161 401 -161 17 -78 c50
-233 245 -464 469 -557 253 -105 558 -75 774 77 239 168 367 432 350 719 -31
509 -514 861 -1007 733 -41 -11 -82 -22 -90 -25 -16 -7 -677 504 -687 530 -3
8 8 62 24 121 l28 108 429 62 429 61 55 -60 c103 -111 237 -190 390 -229 104
-26 278 -26 392 1 267 64 481 263 571 530 59 176 51 395 -20 568 -124 301
-409 492 -741 495 -231 2 -426 -80 -593 -250 l-58 -59 -427 61 -427 61 -27
104 c-15 58 -29 110 -30 117 -2 6 150 131 337 278 265 208 344 265 360 260
145 -42 175 -47 290 -47 144 0 240 22 361 83 200 100 352 285 416 505 20 67
23 101 22 224 0 135 -3 152 -32 240 -85 258 -282 451 -542 532 -65 20 -96 23
-230 23 -135 0 -165 -3 -230 -23 -286 -90 -505 -327 -560 -607 l-12 -60 -401
-162 -402 -161 -82 81 c-46 45 -83 86 -83 92 0 6 71 188 158 404 l157 394 80
19 c101 24 242 92 320 155 189 153 295 375 298 618 1 138 -20 240 -77 360
-176 373 -599 551 -995 419 -253 -84 -456 -307 -522 -574 -29 -113 -23 -317
11 -428 21 -64 22 -74 8 -90 -8 -9 -129 -162 -268 -340 -179 -230 -257 -322
-267 -317 -9 3 -60 17 -114 32 -66 17 -100 32 -103 42 -3 9 -31 201 -62 427
l-58 412 65 63 c111 107 183 233 227 394 23 85 22 287 -2 380 -75 287 -298
514 -581 591 -87 23 -292 28 -380 8z m338 -421 c244 -115 319 -407 159 -618
-21 -28 -71 -73 -112 -101 -81 -55 -116 -96 -127 -153 -10 -54 153 -1202 179
-1259 11 -23 34 -53 52 -67 32 -24 41 -27 231 -70 61 -14 160 -42 220 -62 153
-51 218 -49 284 11 34 31 735 925 755 963 29 57 21 124 -26 221 -42 85 -43 88
-43 192 0 97 2 110 32 173 58 122 173 207 310 230 270 44 515 -213 459 -483
-19 -89 -56 -158 -116 -214 -81 -76 -182 -115 -295 -116 -71 -1 -130 -24 -166
-67 -14 -17 -121 -269 -248 -584 -242 -598 -245 -610 -206 -692 10 -21 60 -74
121 -128 57 -50 143 -136 191 -190 109 -125 138 -144 218 -143 54 1 117 24
609 222 580 234 600 244 632 319 8 18 14 55 14 82 0 175 90 324 237 394 63 30
76 32 173 32 93 0 111 -3 163 -27 82 -38 134 -83 177 -150 162 -249 20 -575
-274 -629 -80 -14 -155 0 -265 51 -99 45 -155 51 -211 22 -19 -10 -245 -183
-503 -385 -368 -290 -471 -376 -487 -407 -27 -53 -25 -121 5 -211 34 -99 81
-278 96 -361 14 -88 53 -149 110 -176 33 -15 187 -40 614 -101 314 -45 590
-81 614 -81 74 0 127 33 175 109 24 36 64 86 90 109 220 202 567 103 661 -187
13 -39 16 -75 13 -137 -8 -152 -95 -282 -236 -351 -52 -26 -67 -28 -167 -28
-98 0 -116 3 -167 27 -72 33 -148 104 -194 180 -44 72 -101 109 -171 110 -89
1 -1184 -160 -1230 -181 -67 -32 -90 -72 -118 -207 -28 -131 -66 -270 -96
-348 -26 -70 -25 -148 3 -198 17 -29 136 -129 483 -401 253 -199 480 -372 505
-385 61 -32 122 -26 216 22 94 48 177 63 263 47 240 -45 392 -288 323 -518
-57 -186 -228 -304 -424 -291 -216 14 -378 199 -378 430 0 67 -31 132 -79 163
-64 42 -1131 465 -1173 465 -72 0 -112 -26 -215 -140 -54 -59 -146 -151 -205
-204 -113 -103 -131 -132 -131 -212 0 -30 59 -190 223 -600 200 -502 227 -563
262 -596 43 -43 89 -58 171 -58 64 0 159 -28 215 -64 129 -81 206 -251 182
-400 -29 -178 -164 -315 -342 -346 -171 -30 -350 65 -430 228 -31 62 -33 73
-33 172 0 103 1 107 43 193 48 101 55 168 25 224 -28 50 -719 928 -758 962
-33 29 -89 51 -129 51 -10 0 -81 -20 -158 -45 -77 -25 -199 -57 -270 -72 -150
-31 -193 -55 -225 -125 -27 -57 -190 -1204 -180 -1259 11 -56 46 -100 116
-145 87 -58 128 -100 162 -169 41 -84 56 -169 41 -245 -31 -166 -132 -281
-293 -331 -187 -58 -391 36 -482 220 -30 62 -32 73 -32 171 0 93 3 112 27 162
33 72 95 139 178 194 66 43 100 87 114 147 9 36 -160 1221 -179 1257 -21 40
-80 88 -122 99 -21 5 -91 22 -155 36 -65 15 -173 45 -240 67 -136 44 -182 46
-244 7 -32 -20 -729 -896 -776 -976 -37 -61 -31 -123 22 -234 44 -91 45 -97
45 -189 0 -86 -3 -101 -32 -162 -61 -130 -172 -215 -310 -239 -152 -27 -332
56 -409 187 -63 108 -79 225 -44 336 53 171 212 288 394 288 74 0 129 24 172
72 45 52 474 1126 474 1188 0 68 -31 120 -118 193 -72 61 -141 130 -273 274
-62 68 -111 89 -183 80 -51 -7 -1112 -433 -1153 -463 -55 -41 -73 -82 -83
-191 -10 -111 -26 -164 -69 -227 -42 -61 -95 -104 -171 -140 -59 -28 -74 -31
-165 -31 -92 0 -106 3 -167 32 -89 42 -148 98 -194 186 -38 71 -39 73 -39 182
0 103 2 114 32 178 57 120 168 204 304 230 79 14 155 -1 268 -52 92 -43 132
-49 191 -28 31 12 872 661 959 741 40 37 70 99 71 145 0 19 -18 91 -41 159
-36 112 -75 268 -94 375 -8 47 -72 121 -119 137 -17 5 -296 48 -619 94 -638
91 -638 91 -705 40 -18 -14 -51 -54 -73 -90 -48 -75 -97 -119 -176 -160 -54
-27 -66 -29 -168 -29 -104 0 -114 2 -176 32 -164 81 -261 262 -230 430 25 136
109 250 224 304 86 40 160 52 238 40 123 -20 215 -84 297 -206 58 -86 104
-115 182 -115 30 1 315 38 633 84 574 82 578 83 615 113 55 44 70 79 98 214
14 67 46 184 70 259 24 76 44 151 44 167 0 47 -20 95 -54 131 -48 51 -922 735
-964 754 -62 29 -115 23 -206 -22 -100 -50 -183 -65 -268 -50 -132 24 -241
107 -300 228 -31 63 -33 72 -33 177 0 100 3 115 28 166 53 108 144 188 256
224 39 13 75 16 140 13 112 -6 194 -43 270 -123 72 -76 101 -146 111 -265 4
-52 11 -104 16 -115 14 -39 56 -85 92 -104 20 -10 276 -114 567 -232 461 -185
537 -213 585 -213 74 -1 117 26 207 129 65 74 125 133 262 258 29 27 59 64 67
83 32 76 27 92 -202 661 -119 296 -227 557 -240 580 -37 64 -80 85 -193 94
-53 4 -116 15 -141 24 -70 24 -147 83 -191 144 -177 247 -35 586 269 643 172
32 354 -68 435 -240 29 -61 32 -76 32 -162 0 -92 -1 -98 -45 -189 -52 -110
-59 -173 -24 -232 11 -19 185 -243 386 -499 399 -509 395 -505 496 -503 26 0
100 19 168 41 66 22 179 53 250 68 71 14 138 31 149 36 30 15 75 60 90 89 8
14 52 296 100 627 75 529 84 607 74 644 -16 61 -41 92 -108 132 -129 79 -201
192 -209 332 -6 101 13 169 68 252 110 165 326 227 503 145z"/>
<path d="M5450 7004 c-175 -48 -327 -176 -397 -333 -76 -170 -70 -372 14 -535
47 -90 164 -209 250 -254 178 -93 398 -93 576 0 138 72 267 240 303 394 21 91
14 243 -15 335 -53 166 -203 319 -374 379 -82 30 -275 37 -357 14z m251 -407
c117 -62 144 -214 56 -314 -84 -95 -220 -95 -304 0 -117 133 -25 337 152 337
35 0 66 -8 96 -23z"/>
<path d="M3821 5790 c-182 -38 -358 -144 -471 -283 -65 -79 -134 -219 -160
-321 -24 -96 -27 -268 -5 -368 32 -154 96 -268 220 -394 131 -133 256 -198
436 -230 452 -79 877 236 939 696 35 257 -62 521 -257 700 -88 80 -175 131
-293 171 -85 29 -109 32 -230 35 -74 2 -155 -1 -179 -6z m270 -406 c153 -45
262 -171 291 -334 45 -261 -207 -509 -468 -461 -137 25 -246 106 -306 229 -31
62 -33 73 -33 172 0 97 2 110 31 171 53 112 129 180 249 221 63 22 165 23 236
2z"/>
<path d="M5845 5176 c-211 -49 -389 -169 -504 -341 -144 -215 -177 -467 -96
-715 84 -254 305 -458 570 -526 106 -28 305 -25 409 4 300 86 521 321 581 621
21 100 16 283 -9 376 -24 89 -89 215 -152 294 -101 126 -263 233 -419 276 -83
23 -301 29 -380 11z m341 -426 c88 -43 156 -112 197 -198 30 -62 32 -74 32
-172 0 -93 -4 -112 -27 -163 -83 -177 -287 -279 -466 -233 -88 22 -137 50
-199 112 -156 156 -160 398 -10 561 88 95 184 135 318 130 74 -3 96 -8 155
-37z"/>
</g>
</svg>
